<?xml version="1.0" encoding="UTF-8" standalone="no"?>
<svg
   xmlns:dc="http://purl.org/dc/elements/1.1/"
   xmlns:cc="http://creativecommons.org/ns#"
   xmlns:rdf="http://www.w3.org/1999/02/22-rdf-syntax-ns#"
   xmlns:svg="http://www.w3.org/2000/svg"
   xmlns="http://www.w3.org/2000/svg"
   xmlns:sodipodi="http://sodipodi.sourceforge.net/DTD/sodipodi-0.dtd"
   xmlns:inkscape="http://www.inkscape.org/namespaces/inkscape"
   width="156.0732mm"
   height="8.200202mm"
   viewBox="0 0 156.0732 8.200202"
   version="1.1"
   id="svg8"
   inkscape:version="1.0.2 (1.0.2+r75+1)"
   sodipodi:docname="drawing.svg">
  <defs
     id="defs2">
    <filter
       inkscape:collect="always"
       style="color-interpolation-filters:sRGB"
       id="filter957"
       x="-5.9000713e-06"
       width="1.0000118"
       y="-0.00012098084"
       height="1.000242">
      <feGaussianBlur
         inkscape:collect="always"
         stdDeviation="0.00036960718"
         id="feGaussianBlur959" />
    </filter>
    <filter
       inkscape:collect="always"
       style="color-interpolation-filters:sRGB"
       id="filter961"
       x="-8.1860544e-06"
       width="1.0000165"
       y="-0.00010819845"
       height="1.0002164">
      <feGaussianBlur
         inkscape:collect="always"
         stdDeviation="0.00036960718"
         id="feGaussianBlur963" />
    </filter>
    <filter
       inkscape:collect="always"
       style="color-interpolation-filters:sRGB"
       id="filter965"
       x="-6.7596055e-05"
       width="1.0001352"
       y="-0.00019344952"
       height="1.000387">
      <feGaussianBlur
         inkscape:collect="always"
         stdDeviation="0.00036960718"
         id="feGaussianBlur967" />
    </filter>
  </defs>
  <sodipodi:namedview
     id="base"
     pagecolor="#ffffff"
     bordercolor="#666666"
     borderopacity="1.0"
     inkscape:pageopacity="0.0"
     inkscape:pageshadow="2"
     inkscape:zoom="0.98994949"
     inkscape:cx="345.63892"
     inkscape:cy="-17.779671"
     inkscape:document-units="mm"
     inkscape:current-layer="layer1-3"
     inkscape:document-rotation="0"
     showgrid="false"
     fit-margin-top="0"
     fit-margin-left="0"
     fit-margin-right="0"
     fit-margin-bottom="0"
     inkscape:window-width="1514"
     inkscape:window-height="1016"
     inkscape:window-x="2330"
     inkscape:window-y="146"
     inkscape:window-maximized="0" />
  <metadata
     id="metadata5">
    <rdf:RDF>
      <cc:Work
         rdf:about="">
        <dc:format>image/svg+xml</dc:format>
        <dc:type
           rdf:resource="http://purl.org/dc/dcmitype/StillImage" />
        <dc:title></dc:title>
      </cc:Work>
    </rdf:RDF>
  </metadata>
  <g
     inkscape:label="Layer 1"
     inkscape:groupmode="layer"
     id="layer1"
     transform="translate(-28.888731,-99.397932)">
    <g
       inkscape:label="Layer 1"
       id="layer1-3"
       transform="translate(1.279291,-10.187752)">
      <path
         style="fill:#000000;stroke:none;stroke-width:0.291417"
         d="m 77.34113,35.578766 v -15.15371 c -5.8e-4,-1.6031 -0.15153,-4.54059 -2.60994,-3.91724 -2.97332,0.75389 -2.17163,8.00582 -2.3937,10.32842 -0.69211,7.24435 -1.45534,15.21374 -0.40856,22.43915 0.50677,3.49876 2.48491,7.03132 6.28645,7.73189 6.63557,1.2222 13.56547,-7.74558 9.16274,-13.55587 -3.26852,-4.31382 -11.57094,-1.57084 -10.92435,3.92859 0.0151,0.55566 0.25081,0.89814 0.60032,1.26352 1.52436,1.45315 3.417,0.5955 3.5126,-1.44676 0,0 0.0774,-0.66132 0.38186,-0.92521 0.70441,-0.60565 2.17624,-1.74575 3.57957,0.35935 1.90121,3.03365 -4.74317,6.68062 -7.18262,5.09152 -7.12749,-4.64375 2.71718,-15.62667 9.31982,-10.99955 6.37738,4.46916 3.13098,16.44322 -3.78726,18.51899 -1.46524,0.43946 -3.20588,0.28938 -4.66268,-0.10463 -9.97959,-2.69941 -8.22555,-14.78886 -7.87964,-22.68423 0.0612,-1.39676 -0.19962,-8.91535 -3.33614,-6.19467 -0.85502,0.74166 -1.07621,2.51056 -1.22774,3.57192 -0.4893,3.42502 -0.36952,7.65029 0.0804,11.07385 0.62771,4.77954 0.34299,10.46102 2.56475,14.86229 2.80402,5.55413 11.9452,7.69925 17.6666,6.23343 10.99693,-2.81714 8.63121,-16.95205 8.46684,-25.46698 -0.039,-2.02097 0.27569,-4.07955 0.27569,-6.11977 0,-3.02637 0.32755,-6.00757 0.29024,-9.03395 -0.014,-1.14175 -0.0638,-2.77079 -1.46757,-3.0622 -1.55268,-0.32201 -2.24625,1.61008 -2.56447,2.77079 -0.91273,3.32885 -0.77926,7.06717 -1.2123,10.49104 -1.22833,-1.20297 -0.66502,-2.52193 -0.5942,-4.07985 0.14134,-3.1138 0.35495,-6.2244 0.69415,-9.32535 0.153,-1.39649 0.47122,-3.13012 -0.58166,-4.27861 -1.803,-1.96705 -3.63632,0.5505 -4.02681,2.23867 -0.78186,3.38161 -0.55719,7.04997 -1.02841,10.49104 -0.20691,1.51071 -0.0869,3.21987 -1.16567,4.37126 0.22206,-5.91957 0.88416,-11.85137 0.87425,-17.77646 -0.003,-2.10725 -1.93356,-5.07446 -3.65554,-2.00933 -2.13725,3.80417 -1.29855,10.61253 -1.29855,14.83168 0,1.9834 0.49657,4.71398 -1.74851,5.53695 z"
         id="path48-3-4"
         sodipodi:nodetypes="ccsccccccccccccccsccccssccccccccscccscc" />
      <text
         xml:space="preserve"
         style="font-style:normal;font-variant:normal;font-weight:normal;font-stretch:normal;font-size:10.5833px;line-height:1.25;font-family:OpenSymbol;-inkscape-font-specification:OpenSymbol;fill:#875448;fill-opacity:1;stroke:none;stroke-width:0.264583"
         x="35.483765"
         y="76.381691"
         id="text103-2"
         inkscape:transform-center-x="3.7115444"
         inkscape:transform-center-y="-7.5564959"><tspan
           sodipodi:role="line"
           id="tspan101-0"
           x="35.483765"
           y="76.381691"
           style="font-style:normal;font-variant:normal;font-weight:normal;font-stretch:normal;font-family:Purisa;-inkscape-font-specification:Purisa;fill:#875448;fill-opacity:1;stroke-width:0.264583"><tspan
   style="fill:#000000"
   id="tspan1148">Nil Sine</tspan> Numine </tspan></text>
      <rect
         style="opacity:1;fill:#cccccc;fill-opacity:1;stroke:none;stroke-width:0.329548;filter:url(#filter957)"
         id="rect890"
         width="150.34686"
         height="7.3322124"
         x="33.334892"
         y="110.01968" />
      <rect
         style="opacity:1;fill:#6e3d32;fill-opacity:1;stroke:none;stroke-width:0.29584;filter:url(#filter961)"
         id="rect848"
         width="108.362"
         height="8.1984282"
         x="27.610327"
         y="109.58657" />
      <text
         xml:space="preserve"
         style="font-style:normal;font-variant:normal;font-weight:normal;font-stretch:normal;font-size:6.06265px;line-height:1.25;font-family:'Abyssinica SIL';-inkscape-font-specification:'Abyssinica SIL';opacity:1;fill:#ffffff;fill-opacity:1;stroke:none;stroke-width:0.162392;filter:url(#filter965)"
         x="77.202667"
         y="116.24869"
         id="text910"><tspan
           sodipodi:role="line"
           id="tspan908"
           x="77.202667"
           y="116.24869"
           style="font-style:normal;font-variant:normal;font-weight:normal;font-stretch:normal;font-size:6.06265px;font-family:Samanata;-inkscape-font-specification:Samanata;fill:#ffffff;stroke-width:0.162392">76%</tspan></text>
    </g>
  </g>
</svg>
