<?xml version="1.0" encoding="utf-8"?>
<!-- Generator: Adobe Illustrator 15.1.0, SVG Export Plug-In . SVG Version: 6.00 Build 0)  -->
<!DOCTYPE svg PUBLIC "-//W3C//DTD SVG 1.1//EN" "http://www.w3.org/Graphics/SVG/1.1/DTD/svg11.dtd">
<svg version="1.1" id="Layer_1" xmlns="http://www.w3.org/2000/svg" xmlns:xlink="http://www.w3.org/1999/xlink" x="0px" y="0px"
	 width="81.362px" height="81.362px" viewBox="0 0 81.362 81.362" enable-background="new 0 0 81.362 81.362" xml:space="preserve">
<g>
	<defs>
		<rect id="SVGID_1_" y="0" width="81.362" height="81.362"/>
	</defs>
	<clipPath id="SVGID_2_">
		<use xlink:href="#SVGID_1_"  overflow="visible"/>
	</clipPath>
	<path clip-path="url(#SVGID_2_)" fill="#FFFFFF" d="M40.682,0C18.213,0,0,18.213,0,40.681c0,22.467,18.213,40.681,40.681,40.681
		c22.467,0,40.681-18.214,40.681-40.681C81.362,18.213,63.148,0,40.682,0 M52.627,24.679h-5.65c-1.996,0-2.411,0.816-2.411,2.88
		v4.986h8.062l-0.775,8.756h-7.286v26.148H34.124V41.41h-5.432v-8.865h5.432v-6.98c0-6.551,3.504-9.972,11.274-9.972h7.229V24.679z"
		/>
</g>
</svg>
