<?xml version="1.0" encoding="utf-8"?>
<!-- Generator: Adobe Illustrator 15.1.0, SVG Export Plug-In . SVG Version: 6.00 Build 0)  -->
<!DOCTYPE svg PUBLIC "-//W3C//DTD SVG 1.1//EN" "http://www.w3.org/Graphics/SVG/1.1/DTD/svg11.dtd">
<svg version="1.1" id="Layer_1" xmlns="http://www.w3.org/2000/svg" xmlns:xlink="http://www.w3.org/1999/xlink" x="0px" y="0px"
	 width="81.362px" height="81.362px" viewBox="0 0 81.362 81.362" enable-background="new 0 0 81.362 81.362" xml:space="preserve">
<g>
	<defs>
		<rect id="SVGID_1_" y="0" width="81.362" height="81.362"/>
	</defs>
	<clipPath id="SVGID_2_">
		<use xlink:href="#SVGID_1_"  overflow="visible"/>
	</clipPath>
	<path clip-path="url(#SVGID_2_)" fill="#FFFFFF" d="M59.058,27.662c-0.426-1.098-0.936-1.881-1.759-2.704
		c-0.824-0.823-1.606-1.333-2.705-1.76c-0.829-0.322-2.073-0.705-4.366-0.81c-2.48-0.113-3.225-0.137-9.504-0.137
		c-6.28,0-7.024,0.024-9.504,0.137c-2.293,0.105-3.539,0.488-4.367,0.81c-1.098,0.427-1.882,0.937-2.704,1.76
		c-0.824,0.823-1.333,1.606-1.76,2.704c-0.322,0.829-0.705,2.075-0.81,4.368c-0.113,2.479-0.137,3.223-0.137,9.503
		c0,6.281,0.024,7.024,0.137,9.504c0.105,2.293,0.488,3.539,0.81,4.368c0.427,1.097,0.936,1.881,1.76,2.704
		c0.822,0.822,1.606,1.333,2.704,1.759c0.828,0.322,2.074,0.705,4.367,0.81c2.48,0.113,3.224,0.137,9.504,0.137
		c6.281,0,7.024-0.023,9.504-0.137c2.293-0.104,3.537-0.487,4.366-0.81c1.099-0.426,1.881-0.937,2.705-1.759
		c0.823-0.823,1.333-1.607,1.759-2.704c0.323-0.829,0.705-2.075,0.811-4.368c0.113-2.48,0.138-3.224,0.138-9.504
		c0-6.28-0.024-7.024-0.138-9.503C59.763,29.737,59.381,28.491,59.058,27.662 M40.723,53.611c-6.67,0-12.078-5.407-12.078-12.079
		c0-6.67,5.408-12.077,12.078-12.077c6.67,0,12.077,5.407,12.077,12.077C52.8,48.204,47.394,53.611,40.723,53.611 M53.278,31.801
		c-1.56,0-2.822-1.264-2.822-2.822c0-1.559,1.263-2.823,2.822-2.823c1.559,0,2.821,1.264,2.821,2.823
		C56.1,30.537,54.837,31.801,53.278,31.801"/>
	<path clip-path="url(#SVGID_2_)" fill="#FFFFFF" d="M40.724,33.693c-4.33,0-7.84,3.51-7.84,7.84c0,4.33,3.51,7.839,7.84,7.839
		c4.329,0,7.84-3.51,7.84-7.839C48.563,37.204,45.053,33.693,40.724,33.693"/>
	<path clip-path="url(#SVGID_2_)" fill="#FFFFFF" d="M40.681,0C18.213,0,0,18.213,0,40.682c0,22.467,18.214,40.681,40.682,40.681
		c22.467,0,40.681-18.214,40.681-40.681C81.362,18.213,63.148,0,40.681,0 M64.102,51.23c-0.114,2.503-0.513,4.213-1.095,5.709
		c-0.6,1.547-1.403,2.858-2.712,4.166c-1.307,1.309-2.618,2.112-4.166,2.713c-1.496,0.581-3.206,0.979-5.709,1.093
		c-2.508,0.114-3.309,0.142-9.697,0.142c-6.388,0-7.189-0.027-9.697-0.142c-2.504-0.114-4.214-0.512-5.71-1.093
		c-1.546-0.601-2.858-1.404-4.165-2.713c-1.308-1.308-2.112-2.619-2.713-4.166c-0.582-1.496-0.979-3.206-1.093-5.709
		c-0.115-2.509-0.142-3.31-0.142-9.697c0-6.388,0.027-7.189,0.142-9.698c0.114-2.503,0.511-4.212,1.093-5.709
		c0.601-1.546,1.405-2.858,2.713-4.166c1.307-1.307,2.619-2.111,4.165-2.712c1.496-0.581,3.206-0.979,5.71-1.094
		c2.508-0.114,3.309-0.141,9.697-0.141c6.388,0,7.189,0.027,9.697,0.141c2.503,0.115,4.213,0.513,5.709,1.094
		c1.548,0.601,2.859,1.405,4.166,2.712c1.309,1.308,2.112,2.62,2.712,4.166c0.582,1.497,0.98,3.206,1.095,5.709
		c0.113,2.509,0.142,3.31,0.142,9.698C64.243,47.921,64.215,48.722,64.102,51.23"/>
</g>
</svg>
